<svg width="2249" height="1518" viewBox="0 0 2249 1518" fill="none" xmlns="http://www.w3.org/2000/svg">
<path d="M293 997L23 568.5H176.5L366 834L509.5 568.5H665.5L176.5 1505.5H23L293 997Z" fill="#fff" stroke="black" stroke-width="25"/>
<path d="M1838 256L485.178 256L602.969 409.155L876.099 409.155L443 1262H630.745L1045.84 409.155L1620 409.155L1838 256Z" fill="#fff" stroke="black" stroke-width="25"/>
<path fill-rule="evenodd" clip-rule="evenodd" d="M1556.5 13L933.5 1288.44H1736L2230 13H1556.5ZM1627.5 180L1189 1117L1637.5 1107L2022.5 180H1627.5Z" fill="#fff"/>
<path d="M933.5 1288.44L922.268 1282.95L913.483 1300.94H933.5V1288.44ZM1556.5 13V0.5H1548.69L1545.27 7.51376L1556.5 13ZM1736 1288.44V1300.94H1744.56L1747.66 1292.95L1736 1288.44ZM2230 13L2241.66 17.5147L2248.25 0.5H2230V13ZM1189 1117L1177.68 1111.7L1169.14 1129.95L1189.28 1129.5L1189 1117ZM1627.5 180V167.5H1619.55L1616.18 174.702L1627.5 180ZM1637.5 1107L1637.78 1119.5L1645.92 1119.32L1649.04 1111.79L1637.5 1107ZM2022.5 180L2034.04 184.794L2041.23 167.5H2022.5V180ZM944.732 1293.92L1567.73 18.4862L1545.27 7.51376L922.268 1282.95L944.732 1293.92ZM1736 1275.94H933.5V1300.94H1736V1275.94ZM2218.34 8.48532L1724.34 1283.92L1747.66 1292.95L2241.66 17.5147L2218.34 8.48532ZM1556.5 25.5H2230V0.5H1556.5V25.5ZM1200.32 1122.3L1638.82 185.298L1616.18 174.702L1177.68 1111.7L1200.32 1122.3ZM1637.22 1094.5L1188.72 1104.5L1189.28 1129.5L1637.78 1119.5L1637.22 1094.5ZM2010.96 175.206L1625.96 1102.21L1649.04 1111.79L2034.04 184.794L2010.96 175.206ZM1627.5 192.5H2022.5V167.5H1627.5V192.5Z" fill="black"/>
<path d="M816.886 1061.62L1111.18 493H1762L1578.64 621.398H1191.54L1030.71 933.105H1512.25L1295.53 1504H300L487.748 1360.91H1191.54L1321.6 1061.62H816.886Z" fill="#fff" stroke="black" stroke-width="25"/>
</svg>
