<svg width="646" height="458" viewBox="0 0 646 458" fill="none" xmlns="http://www.w3.org/2000/svg">
<g filter="url(#filter0_ddddddd_102_24)">
<path fill-rule="evenodd" clip-rule="evenodd" d="M15 43L10 427H97C97 427 53 261 109 248C140.61 240.662 167.123 287.172 193.573 333.573C213.981 369.375 234.353 405.112 257 416C309 441 364 427 364 427C364 427 573 466 615 427C657 388 595 235 595 235C595 235 672 126 615 43C558 -40 364 43 364 43H288C288 43 332 265 257 259C209.634 255.211 177.025 179.627 150.61 118.399C135.199 82.6777 121.896 51.8428 109 43C74 19 15 43 15 43ZM443 203L465 98C465 98 555 43 563 129C571 215 443 203 443 203ZM465 384L443 276C443 276 555 254 563 340C571 426 465 384 465 384Z" fill="#4C0EA1"/>
<path d="M10 427L4.50047 426.928L4.42792 432.5H10V427ZM15 43L12.9276 37.9054L9.54797 39.2801L9.50047 42.9284L15 43ZM97 427V432.5H104.148L102.316 425.591L97 427ZM109 248L107.756 242.642L107.756 242.642L109 248ZM193.573 333.573L198.351 330.85L198.351 330.85L193.573 333.573ZM257 416L259.383 411.043L259.383 411.043L257 416ZM364 427L365.009 421.593L363.818 421.371L362.643 421.67L364 427ZM595 235L590.508 231.827L588.774 234.281L589.903 237.066L595 235ZM615 43L610.466 46.1136L610.466 46.1136L615 43ZM364 43V48.5H365.127L366.163 48.0566L364 43ZM288 43V37.5H281.303L282.605 44.0693L288 43ZM257 259L256.561 264.482L257 259ZM150.61 118.399L155.66 116.22L155.66 116.22L150.61 118.399ZM109 43L105.89 47.536L105.89 47.536L109 43ZM465 98L462.132 93.3069L460.104 94.5461L459.617 96.8721L465 98ZM443 203L437.617 201.872L436.354 207.901L442.487 208.476L443 203ZM563 129L568.476 128.491L563 129ZM443 276L441.94 270.603L436.505 271.671L437.611 277.098L443 276ZM465 384L459.611 385.098L460.205 388.016L462.974 389.113L465 384ZM15.4995 427.072L20.4995 43.0716L9.50047 42.9284L4.50047 426.928L15.4995 427.072ZM97 421.5H10V432.5H97V421.5ZM107.756 242.642C90.5401 246.639 82.0066 262.286 78.1236 280.294C74.1956 298.51 74.507 321.143 76.5235 342.883C78.5489 364.719 82.3399 386.091 85.6133 401.97C87.2518 409.918 88.765 416.511 89.8702 421.123C90.4229 423.43 90.8738 425.242 91.1877 426.482C91.3447 427.102 91.4674 427.579 91.5515 427.904C91.5936 428.066 91.626 428.19 91.6482 428.275C91.6593 428.317 91.6678 428.349 91.6737 428.372C91.6767 428.383 91.679 428.392 91.6807 428.398C91.6815 428.401 91.6822 428.404 91.6826 428.405C91.6832 428.408 91.6836 428.409 97 427C102.316 425.591 102.316 425.591 102.316 425.591C102.316 425.59 102.316 425.589 102.315 425.587C102.314 425.583 102.313 425.576 102.31 425.567C102.306 425.55 102.298 425.522 102.288 425.484C102.269 425.409 102.239 425.295 102.199 425.143C102.12 424.838 102.003 424.382 101.851 423.783C101.548 422.585 101.108 420.818 100.567 418.56C99.485 414.043 97.9982 407.566 96.3867 399.749C93.1601 384.097 89.4511 363.156 87.4765 341.867C85.493 320.482 85.3044 299.178 88.8764 282.612C92.4934 265.839 99.4599 255.861 110.244 253.358L107.756 242.642ZM198.351 330.85C185.207 307.791 171.707 284.069 157.431 267.094C143.369 250.375 126.87 238.205 107.756 242.642L110.244 253.358C122.74 250.457 135.302 257.873 149.012 274.174C162.508 290.221 175.489 312.955 188.795 336.297L198.351 330.85ZM259.383 411.043C249.392 406.24 239.313 395.584 228.933 380.948C218.647 366.442 208.591 348.812 198.351 330.85L188.795 336.297C198.964 354.136 209.298 372.275 219.96 387.311C230.53 402.215 241.96 414.872 254.617 420.957L259.383 411.043ZM364 427C362.643 421.67 362.645 421.669 362.646 421.669C362.646 421.669 362.647 421.669 362.648 421.669C362.648 421.669 362.648 421.669 362.647 421.669C362.645 421.669 362.639 421.671 362.631 421.673C362.613 421.677 362.583 421.685 362.539 421.695C362.453 421.717 362.314 421.75 362.126 421.793C361.75 421.881 361.175 422.01 360.415 422.168C358.895 422.484 356.637 422.916 353.754 423.361C347.985 424.252 339.734 425.194 329.898 425.376C310.181 425.741 284.36 423.051 259.383 411.043L254.617 420.957C281.64 433.949 309.319 436.759 330.102 436.374C340.516 436.181 349.265 435.185 355.433 434.232C358.519 433.756 360.965 433.289 362.655 432.937C363.501 432.761 364.158 432.614 364.613 432.509C364.84 432.456 365.017 432.413 365.142 432.383C365.204 432.368 365.253 432.356 365.289 432.347C365.307 432.342 365.322 432.339 365.333 432.336C365.339 432.335 365.343 432.333 365.347 432.332C365.349 432.332 365.352 432.331 365.353 432.331C365.355 432.33 365.357 432.33 364 427ZM611.258 422.97C606.937 426.982 600.049 430.333 590.703 432.893C581.437 435.43 570.213 437.068 557.669 437.967C532.584 439.766 502.846 438.572 474.215 436.145C445.62 433.72 418.308 430.081 398.131 427.046C388.047 425.528 379.755 424.163 373.989 423.178C371.106 422.686 368.855 422.288 367.327 422.015C366.564 421.878 365.981 421.772 365.591 421.7C365.396 421.665 365.249 421.638 365.151 421.62C365.103 421.611 365.066 421.604 365.042 421.599C365.03 421.597 365.022 421.596 365.016 421.595C365.013 421.594 365.012 421.594 365.01 421.593C365.009 421.593 365.009 421.593 364 427C362.991 432.407 362.992 432.407 362.995 432.407C362.996 432.408 362.999 432.408 363.003 432.409C363.01 432.41 363.02 432.412 363.034 432.415C363.061 432.42 363.1 432.427 363.152 432.436C363.256 432.456 363.409 432.484 363.611 432.521C364.014 432.595 364.61 432.703 365.387 432.842C366.942 433.121 369.222 433.523 372.136 434.021C377.964 435.016 386.328 436.393 396.494 437.923C416.817 440.981 444.38 444.655 473.285 447.105C502.154 449.553 532.541 450.797 558.456 448.939C571.412 448.01 583.407 446.296 593.609 443.502C603.733 440.729 612.563 436.768 618.742 431.03L611.258 422.97ZM595 235C589.903 237.066 589.903 237.065 589.903 237.066C589.903 237.067 589.903 237.068 589.904 237.069C589.906 237.073 589.908 237.079 589.911 237.087C589.918 237.103 589.928 237.129 589.942 237.164C589.97 237.233 590.012 237.338 590.068 237.479C590.181 237.761 590.349 238.183 590.567 238.738C591.003 239.849 591.64 241.491 592.439 243.598C594.035 247.814 596.274 253.891 598.832 261.309C603.952 276.156 610.329 296.317 615.399 317.647C620.481 339.029 624.185 361.325 624.094 380.521C624.002 400 620.006 414.845 611.258 422.97L618.742 431.03C630.994 419.654 634.998 400.75 635.094 380.573C635.19 360.113 631.269 336.846 626.101 315.103C620.921 293.308 614.423 272.781 609.231 257.723C606.632 250.187 604.355 244.006 602.726 239.702C601.91 237.55 601.257 235.867 600.805 234.717C600.58 234.142 600.404 233.701 600.285 233.401C600.225 233.251 600.179 233.137 600.147 233.059C600.132 233.019 600.12 232.99 600.111 232.969C600.107 232.958 600.104 232.95 600.102 232.945C600.1 232.942 600.099 232.939 600.099 232.938C600.098 232.936 600.097 232.934 595 235ZM610.466 46.1136C637.555 85.559 633.044 131.499 621.14 168.438C615.213 186.829 607.531 202.721 601.32 214.023C598.219 219.667 595.494 224.15 593.553 227.207C592.583 228.736 591.811 229.907 591.286 230.688C591.023 231.079 590.823 231.372 590.691 231.563C590.625 231.658 590.577 231.728 590.546 231.773C590.53 231.795 590.519 231.81 590.513 231.819C590.51 231.824 590.508 231.827 590.507 231.828C590.506 231.828 590.507 231.828 590.507 231.828C590.507 231.828 590.508 231.827 595 235C599.492 238.173 599.494 238.171 599.495 238.169C599.496 238.168 599.498 238.165 599.5 238.162C599.504 238.157 599.509 238.15 599.515 238.141C599.527 238.124 599.544 238.099 599.565 238.069C599.608 238.008 599.669 237.92 599.747 237.807C599.903 237.581 600.128 237.251 600.416 236.823C600.991 235.967 601.817 234.715 602.841 233.101C604.889 229.874 607.734 225.192 610.961 219.321C617.406 207.592 625.412 191.046 631.61 171.812C643.956 133.501 649.445 83.441 619.534 39.8864L610.466 46.1136ZM364 43C366.163 48.0566 366.163 48.0568 366.163 48.0567C366.164 48.0562 366.165 48.0558 366.168 48.0548C366.172 48.053 366.179 48.0499 366.189 48.0455C366.21 48.0369 366.242 48.0232 366.285 48.0048C366.373 47.9679 366.506 47.9117 366.684 47.8372C367.039 47.6882 367.574 47.4659 368.277 47.1778C369.684 46.6016 371.766 45.7626 374.442 44.7214C379.794 42.6385 387.52 39.7486 396.973 36.5356C415.898 30.1034 441.662 22.4056 469.133 17.2818C496.662 12.1472 525.578 9.66104 550.927 13.4247C576.243 17.1838 597.383 27.0634 610.466 46.1136L619.534 39.8864C604.117 17.4366 579.632 6.56624 552.542 2.54402C525.484 -1.47354 495.213 1.22783 467.117 6.46825C438.963 11.7194 412.665 19.5841 393.433 26.1207C383.808 29.392 375.932 32.338 370.453 34.4701C367.713 35.5363 365.571 36.3994 364.108 36.9985C363.377 37.298 362.815 37.5316 362.433 37.6916C362.242 37.7716 362.096 37.8333 361.996 37.8755C361.946 37.8967 361.908 37.913 361.881 37.9243C361.868 37.93 361.858 37.9344 361.85 37.9376C361.846 37.9392 361.843 37.9406 361.841 37.9414C361.838 37.9425 361.837 37.9434 364 43ZM288 48.5H364V37.5H288V48.5ZM256.561 264.482C267.439 265.353 276.47 262.038 283.589 255.489C290.531 249.103 295.354 239.931 298.72 229.465C305.44 208.57 306.939 180.607 306.123 153.087C305.302 125.43 302.117 97.6456 299.148 76.8177C297.662 66.3931 296.227 57.6877 295.162 51.5824C294.63 48.5293 294.19 46.1252 293.882 44.4802C293.728 43.6576 293.607 43.0247 293.524 42.5953C293.483 42.3805 293.451 42.2166 293.429 42.1053C293.418 42.0496 293.41 42.0071 293.404 41.9779C293.402 41.9634 293.399 41.9521 293.398 41.9442C293.397 41.9403 293.396 41.9369 293.396 41.9349C293.395 41.9324 293.395 41.9307 288 43C282.605 44.0693 282.605 44.0693 282.605 44.0701C282.605 44.0715 282.606 44.0732 282.606 44.076C282.607 44.0817 282.609 44.0906 282.612 44.1029C282.616 44.1275 282.624 44.1654 282.634 44.2165C282.654 44.3185 282.684 44.4729 282.723 44.6781C282.803 45.0883 282.92 45.7013 283.07 46.5032C283.37 48.1072 283.802 50.4668 284.326 53.4723C285.374 59.4842 286.791 68.0756 288.258 78.3699C291.196 98.9794 294.323 126.32 295.127 153.413C295.936 180.643 294.372 207.055 288.248 226.097C285.192 235.6 281.149 242.788 276.142 247.394C271.312 251.837 265.311 254.147 257.439 253.518L256.561 264.482ZM145.559 120.577C158.722 151.086 173.655 185.736 191.322 213.213C208.789 240.38 230.063 262.363 256.561 264.482L257.439 253.518C236.571 251.848 217.857 234.144 200.574 207.264C183.491 180.695 168.913 146.939 155.66 116.22L145.559 120.577ZM105.89 47.536C108.332 49.211 111.137 52.1905 114.276 56.6531C117.378 61.0615 120.602 66.6192 123.976 73.1455C130.733 86.2177 137.829 102.66 145.559 120.577L155.66 116.22C147.979 98.4166 140.719 81.5807 133.747 68.0945C130.257 61.3416 126.774 55.3 123.273 50.3235C119.81 45.4013 116.116 41.2104 112.11 38.464L105.89 47.536ZM15 43C17.0724 48.0946 17.0712 48.0951 17.0703 48.0955C17.0703 48.0955 17.0696 48.0958 17.0695 48.0958C17.0695 48.0958 17.0703 48.0955 17.072 48.0948C17.0754 48.0934 17.0824 48.0906 17.0928 48.0864C17.1138 48.078 17.1486 48.064 17.1972 48.0448C17.2943 48.0063 17.4461 47.9466 17.6499 47.868C18.0577 47.7108 18.6735 47.4779 19.4773 47.1866C21.0856 46.6038 23.4424 45.789 26.3869 44.8806C32.2866 43.0607 40.4912 40.8824 49.7273 39.4336C68.4947 36.4897 90.1886 36.7696 105.89 47.536L112.11 38.464C92.8114 25.2304 67.5053 25.5103 48.0227 28.5664C38.1338 30.1176 29.4009 32.4393 23.1444 34.3694C20.0108 35.336 17.4847 36.2087 15.7297 36.8447C14.8519 37.1628 14.166 37.422 13.6924 37.6046C13.4555 37.6959 13.2717 37.7681 13.1434 37.819C13.0793 37.8444 13.029 37.8645 12.9929 37.879C12.9749 37.8862 12.9604 37.8921 12.9495 37.8965C12.9441 37.8987 12.9395 37.9005 12.9359 37.902C12.934 37.9028 12.932 37.9036 12.9311 37.904C12.9292 37.9047 12.9276 37.9054 15 43ZM459.617 96.8721L437.617 201.872L448.383 204.128L470.383 99.1279L459.617 96.8721ZM568.476 128.491C566.387 106.025 558.81 91.5981 547.542 83.4232C536.39 75.3322 522.758 74.2044 510.304 75.7943C497.805 77.3898 485.753 81.8061 476.95 85.7255C472.52 87.6982 468.847 89.5747 466.272 90.964C464.983 91.6593 463.965 92.2343 463.262 92.6406C462.91 92.8438 462.637 93.0049 462.447 93.1179C462.352 93.1744 462.277 93.2189 462.225 93.2507C462.198 93.2666 462.178 93.2793 462.162 93.2887C462.154 93.2934 462.148 93.2973 462.143 93.3003C462.14 93.3018 462.138 93.3035 462.136 93.3042C462.134 93.3057 462.132 93.3069 465 98C467.868 102.693 467.867 102.694 467.866 102.694C467.866 102.694 467.865 102.695 467.865 102.695C467.866 102.694 467.868 102.693 467.871 102.691C467.877 102.688 467.889 102.68 467.906 102.67C467.94 102.65 467.995 102.617 468.07 102.572C468.221 102.482 468.454 102.345 468.763 102.166C469.382 101.809 470.306 101.286 471.494 100.645C473.872 99.3627 477.293 97.6143 481.425 95.7744C489.747 92.0688 500.695 88.1102 511.696 86.7057C522.742 85.2956 533.11 86.5428 541.083 92.3268C548.94 98.0268 555.613 108.975 557.524 129.509L568.476 128.491ZM443 203C442.487 208.476 442.489 208.476 442.492 208.476C442.493 208.477 442.496 208.477 442.5 208.477C442.506 208.478 442.514 208.479 442.524 208.479C442.544 208.481 442.572 208.484 442.608 208.487C442.679 208.493 442.781 208.502 442.912 208.513C443.174 208.535 443.554 208.565 444.043 208.6C445.022 208.67 446.44 208.759 448.232 208.842C451.814 209.007 456.903 209.142 462.976 209.03C475.087 208.807 491.287 207.598 507.334 203.586C523.316 199.59 539.66 192.689 551.531 180.716C563.614 168.528 570.619 151.522 568.476 128.491L557.524 129.509C559.381 149.478 553.386 163.222 543.719 172.971C533.84 182.936 519.684 189.16 504.666 192.914C489.713 196.652 474.413 197.818 462.774 198.032C456.972 198.139 452.123 198.009 448.737 197.853C447.045 197.776 445.72 197.692 444.828 197.628C444.382 197.596 444.044 197.569 443.822 197.551C443.711 197.541 443.629 197.534 443.577 197.53C443.552 197.527 443.533 197.526 443.522 197.525C443.517 197.524 443.514 197.524 443.512 197.524C443.511 197.524 443.512 197.524 443.511 197.524C443.512 197.524 443.513 197.524 443 203ZM437.611 277.098L459.611 385.098L470.389 382.902L448.389 274.902L437.611 277.098ZM568.476 339.491C566.353 316.66 557.233 300.57 544.468 289.555C531.842 278.66 516.046 273.066 500.98 270.338C485.885 267.605 471.149 267.682 460.254 268.419C454.789 268.788 450.249 269.327 447.061 269.776C445.466 270.001 444.206 270.204 443.336 270.352C442.9 270.426 442.562 270.487 442.327 270.53C442.21 270.552 442.118 270.569 442.053 270.581C442.021 270.587 441.995 270.592 441.976 270.596C441.967 270.598 441.959 270.599 441.953 270.601C441.95 270.601 441.947 270.602 441.945 270.602C441.942 270.603 441.94 270.603 443 276C444.06 281.397 444.059 281.397 444.057 281.397C444.058 281.397 444.057 281.397 444.057 281.397C444.058 281.397 444.06 281.397 444.064 281.396C444.073 281.394 444.088 281.392 444.109 281.387C444.152 281.379 444.221 281.366 444.316 281.349C444.505 281.314 444.797 281.262 445.184 281.196C445.958 281.064 447.112 280.878 448.595 280.669C451.563 280.251 455.836 279.743 460.996 279.394C471.351 278.693 485.115 278.645 499.02 281.162C512.954 283.684 526.658 288.715 537.282 297.883C547.767 306.93 555.647 320.34 557.524 340.509L568.476 339.491ZM465 384C462.974 389.113 462.976 389.114 462.979 389.115C462.98 389.116 462.983 389.117 462.986 389.118C462.991 389.12 462.998 389.123 463.007 389.126C463.024 389.133 463.048 389.142 463.078 389.154C463.139 389.178 463.224 389.211 463.334 389.253C463.554 389.337 463.871 389.458 464.279 389.609C465.096 389.911 466.277 390.337 467.768 390.844C470.748 391.857 474.981 393.201 480.032 394.536C490.075 397.191 503.61 399.882 517.054 399.75C530.4 399.619 544.534 396.693 554.798 387.193C565.273 377.499 570.575 362.055 568.476 339.491L557.524 340.509C559.425 360.945 554.477 372.501 547.327 379.12C539.966 385.932 529.1 388.631 516.946 388.75C504.89 388.868 492.425 386.434 482.843 383.901C478.081 382.643 474.095 381.377 471.31 380.43C469.919 379.956 468.83 379.564 468.098 379.293C467.731 379.157 467.455 379.052 467.274 378.983C467.183 378.948 467.117 378.922 467.075 378.906C467.055 378.898 467.04 378.892 467.032 378.889C467.028 378.887 467.025 378.886 467.024 378.886C467.024 378.886 467.024 378.886 467.024 378.886C467.025 378.886 467.026 378.887 465 384ZM369.5 427V43H358.5V427H369.5Z" fill="#333333"/>
</g>
<defs>
<filter id="filter0_ddddddd_102_24" x="0.427917" y="0.611298" width="645.088" height="457.222" filterUnits="userSpaceOnUse" color-interpolation-filters="sRGB">
<feFlood flood-opacity="0" result="BackgroundImageFix"/>
<feColorMatrix in="SourceAlpha" type="matrix" values="0 0 0 0 0 0 0 0 0 0 0 0 0 0 0 0 0 0 127 0" result="hardAlpha"/>
<feOffset dy="4"/>
<feGaussianBlur stdDeviation="2"/>
<feComposite in2="hardAlpha" operator="out"/>
<feColorMatrix type="matrix" values="0 0 0 0 0 0 0 0 0 0 0 0 0 0 0 0 0 0 0.25 0"/>
<feBlend mode="normal" in2="BackgroundImageFix" result="effect1_dropShadow_102_24"/>
<feColorMatrix in="SourceAlpha" type="matrix" values="0 0 0 0 0 0 0 0 0 0 0 0 0 0 0 0 0 0 127 0" result="hardAlpha"/>
<feOffset dy="4"/>
<feGaussianBlur stdDeviation="2"/>
<feComposite in2="hardAlpha" operator="out"/>
<feColorMatrix type="matrix" values="0 0 0 0 0 0 0 0 0 0 0 0 0 0 0 0 0 0 0.25 0"/>
<feBlend mode="normal" in2="effect1_dropShadow_102_24" result="effect2_dropShadow_102_24"/>
<feColorMatrix in="SourceAlpha" type="matrix" values="0 0 0 0 0 0 0 0 0 0 0 0 0 0 0 0 0 0 127 0" result="hardAlpha"/>
<feOffset dy="4"/>
<feGaussianBlur stdDeviation="2"/>
<feComposite in2="hardAlpha" operator="out"/>
<feColorMatrix type="matrix" values="0 0 0 0 0 0 0 0 0 0 0 0 0 0 0 0 0 0 0.25 0"/>
<feBlend mode="normal" in2="effect2_dropShadow_102_24" result="effect3_dropShadow_102_24"/>
<feColorMatrix in="SourceAlpha" type="matrix" values="0 0 0 0 0 0 0 0 0 0 0 0 0 0 0 0 0 0 127 0" result="hardAlpha"/>
<feOffset dy="4"/>
<feGaussianBlur stdDeviation="2"/>
<feComposite in2="hardAlpha" operator="out"/>
<feColorMatrix type="matrix" values="0 0 0 0 0 0 0 0 0 0 0 0 0 0 0 0 0 0 0.25 0"/>
<feBlend mode="normal" in2="effect3_dropShadow_102_24" result="effect4_dropShadow_102_24"/>
<feColorMatrix in="SourceAlpha" type="matrix" values="0 0 0 0 0 0 0 0 0 0 0 0 0 0 0 0 0 0 127 0" result="hardAlpha"/>
<feOffset dy="4"/>
<feGaussianBlur stdDeviation="2"/>
<feComposite in2="hardAlpha" operator="out"/>
<feColorMatrix type="matrix" values="0 0 0 0 0 0 0 0 0 0 0 0 0 0 0 0 0 0 0.25 0"/>
<feBlend mode="normal" in2="effect4_dropShadow_102_24" result="effect5_dropShadow_102_24"/>
<feColorMatrix in="SourceAlpha" type="matrix" values="0 0 0 0 0 0 0 0 0 0 0 0 0 0 0 0 0 0 127 0" result="hardAlpha"/>
<feOffset dy="4"/>
<feGaussianBlur stdDeviation="2"/>
<feComposite in2="hardAlpha" operator="out"/>
<feColorMatrix type="matrix" values="0 0 0 0 0 0 0 0 0 0 0 0 0 0 0 0 0 0 0.25 0"/>
<feBlend mode="normal" in2="effect5_dropShadow_102_24" result="effect6_dropShadow_102_24"/>
<feColorMatrix in="SourceAlpha" type="matrix" values="0 0 0 0 0 0 0 0 0 0 0 0 0 0 0 0 0 0 127 0" result="hardAlpha"/>
<feOffset dy="4"/>
<feGaussianBlur stdDeviation="2"/>
<feComposite in2="hardAlpha" operator="out"/>
<feColorMatrix type="matrix" values="0 0 0 0 0 0 0 0 0 0 0 0 0 0 0 0 0 0 0.25 0"/>
<feBlend mode="normal" in2="effect6_dropShadow_102_24" result="effect7_dropShadow_102_24"/>
<feBlend mode="normal" in="SourceGraphic" in2="effect7_dropShadow_102_24" result="shape"/>
</filter>
</defs>
</svg>
